<?xml version="1.0" encoding="iso-8859-1"?>
<!-- Generator: Adobe Illustrator 19.0.0, SVG Export Plug-In . SVG Version: 6.00 Build 0)  -->
<svg version="1.1" id="Capa_1" xmlns="http://www.w3.org/2000/svg" xmlns:xlink="http://www.w3.org/1999/xlink" x="0px" y="0px"
	 viewBox="0 0 512 512" style="enable-background:new 0 0 512 512;" xml:space="preserve">
<g>
	<g>
		<path d="M497,361h-16v90h16c8.291,0,15-6.709,15-15v-60C512,367.709,505.291,361,497,361z"/>
	</g>
</g>
<g>
	<g>
		<path d="M136,0H76c-8.291,0-15,6.709-15,15v16h90V15C151,6.709,144.291,0,136,0z"/>
	</g>
</g>
<g>
	<g>
		<path d="M476.605,35.395c-5.859-5.859-15.352-5.859-21.211,0L429.789,61H15C6.709,61,0,67.709,0,76v60c0,8.291,6.709,15,15,15
			h324.789L151,339.789V181H61v248.789l-25.605,25.605c-5.859,5.859-5.859,15.352,0,21.211C38.324,479.535,42.162,481,46,481
			s7.676-1.465,10.605-4.395L82.211,451H331v-90H172.211L361,172.211V497c0,8.291,6.709,15,15,15h60c8.291,0,15-6.709,15-15V82.211
			l25.605-25.605C482.465,50.746,482.465,41.254,476.605,35.395z"/>
	</g>
</g>
<g>
</g>
<g>
</g>
<g>
</g>
<g>
</g>
<g>
</g>
<g>
</g>
<g>
</g>
<g>
</g>
<g>
</g>
<g>
</g>
<g>
</g>
<g>
</g>
<g>
</g>
<g>
</g>
<g>
</g>
</svg>
