<?xml version="1.0" encoding="iso-8859-1"?>
<!-- Generator: Adobe Illustrator 19.0.0, SVG Export Plug-In . SVG Version: 6.00 Build 0)  -->
<svg version="1.1" id="Capa_1" xmlns="http://www.w3.org/2000/svg" xmlns:xlink="http://www.w3.org/1999/xlink" x="0px" y="0px"
	 viewBox="0 0 512 512" style="enable-background:new 0 0 512 512;" xml:space="preserve">
<g>
	<g>
		<path d="M0,244.231v19.142c0,17.918,18.59,28.329,34.185,33.908c17.224,6.162,39.603,9.7,63.395,10.066v-40.324
			C59.179,266.352,23.671,257.785,0,244.231z"/>
	</g>
</g>
<g>
	<g>
		<path d="M98.021,196.967c-27.933-0.31-54.354-4.148-74.743-10.906C14.023,182.993,6.353,179.427,0,175.568v29.751l2.416,3.196
			c11.173,13.591,49.304,27.575,95.165,28.512v-32.059c0-1.877,0.181-3.712,0.511-5.493
			C98.049,198.615,98.025,197.777,98.021,196.967z"/>
	</g>
</g>
<g>
	<g>
		<path d="M101.684,89.326C52.876,89.325,0.347,101.481,0.347,128.167c0,26.686,52.529,38.841,101.336,38.841
			c1.676,0,3.356-0.016,5.039-0.045c3.165-4.987,7.403-10.018,13.04-14.867c9.86-8.483,23.192-15.544,39.624-20.99
			c12.495-4.141,26.885-7.379,42.446-9.639C193.804,99.44,146.2,89.326,101.684,89.326z"/>
	</g>
</g>
<g>
	<g>
		<path d="M414.003,267.042v40.309c23.947-0.331,46.486-3.872,63.812-10.07C506.069,287.174,512,273.262,512,263.372V245.04
			C487.797,258.311,451.893,266.636,414.003,267.042z"/>
	</g>
</g>
<g>
	<g>
		<path d="M488.722,186.061c-20.489,6.79-47.072,10.633-75.16,10.909c-0.004,0.81-0.027,1.645-0.071,2.504
			c0.33,1.782,0.511,3.617,0.511,5.494v32.085c46.596-0.562,84.26-14.497,96.349-27.633c0.515-0.56,1.073-1.055,1.647-1.518v-32.335
			C505.647,179.427,497.977,182.993,488.722,186.061z"/>
	</g>
</g>
<g>
	<g>
		<path d="M410.316,89.325c-44.555,0-92.204,10.132-100.168,32.199c15.409,2.258,29.662,5.475,42.05,9.581
			c16.432,5.446,29.763,12.508,39.623,20.99c5.633,4.846,9.87,9.874,13.035,14.859c1.823,0.034,3.645,0.053,5.46,0.053
			c48.807,0,101.336-12.154,101.336-38.841S459.123,89.325,410.316,89.325z"/>
	</g>
</g>
<g>
	<g>
		<path d="M256.775,367.922c-50.458,0-98.667-11.489-129.206-29.528v28.78c0,22.596,23.442,35.725,43.108,42.76
			c22.965,8.216,53.193,12.74,85.115,12.74c31.922,0,62.15-4.524,85.114-12.74c35.631-12.746,43.109-30.288,43.109-42.76v-27.572
			C353.41,357.055,306.352,367.922,256.775,367.922z"/>
	</g>
</g>
<g>
	<g>
		<path d="M352.198,262.255c-26.058,8.637-60.296,13.393-96.407,13.393c-36.11,0-70.348-4.756-96.407-13.393
			c-12.436-4.121-23.092-9.171-31.816-15.059v53.248c14.928,18.21,65.14,37.49,129.206,37.49
			c61.276,0,109.985-17.632,127.239-35.322v-55.416C375.291,253.084,364.635,258.133,352.198,262.255z"/>
	</g>
</g>
<g>
	<g>
		<path d="M255.792,147.701c-61.545,0-127.785,15.327-127.785,48.979s66.24,48.979,127.785,48.979s127.785-15.327,127.785-48.979
			S317.336,147.701,255.792,147.701z"/>
	</g>
</g>
<g>
</g>
<g>
</g>
<g>
</g>
<g>
</g>
<g>
</g>
<g>
</g>
<g>
</g>
<g>
</g>
<g>
</g>
<g>
</g>
<g>
</g>
<g>
</g>
<g>
</g>
<g>
</g>
<g>
</g>
</svg>
