<?xml version="1.0" encoding="iso-8859-1"?>
<!-- Generator: Adobe Illustrator 19.0.0, SVG Export Plug-In . SVG Version: 6.00 Build 0)  -->
<svg version="1.1" id="Capa_1" xmlns="http://www.w3.org/2000/svg" xmlns:xlink="http://www.w3.org/1999/xlink" x="0px" y="0px"
	 viewBox="0 0 512 512" style="enable-background:new 0 0 512 512;" xml:space="preserve">
<g>
	<g>
		<path d="M409.6,0H179.2C122.88,0,76.8,46.08,76.8,102.4v384c0,15.36,10.24,25.6,25.6,25.6h230.4c56.32,0,102.4-46.08,102.4-102.4
			v-384C435.2,10.24,424.96,0,409.6,0z M256,460.8c-15.36,0-25.6-10.24-25.6-25.6s10.24-25.6,25.6-25.6s25.6,10.24,25.6,25.6
			S271.36,460.8,256,460.8z M384,358.4H128v-256c0-28.16,23.04-51.2,51.2-51.2H384V358.4z"/>
	</g>
</g>
<g>
</g>
<g>
</g>
<g>
</g>
<g>
</g>
<g>
</g>
<g>
</g>
<g>
</g>
<g>
</g>
<g>
</g>
<g>
</g>
<g>
</g>
<g>
</g>
<g>
</g>
<g>
</g>
<g>
</g>
</svg>
